<svg width="16" height="8" viewBox="0 0 16 8" fill="none" xmlns="http://www.w3.org/2000/svg">
<mask id="path-1-inside-1_1_51" fill="white">
<path d="M16 0L9.41414 7.34907C8.63636 8.21698 7.36364 8.21698 6.58586 7.34907L0 0"/>
</mask>
<path d="M16.7447 0.667379L17.4121 -0.0773398L15.9227 -1.4121L15.2553 -0.667379L16.7447 0.667379ZM9.41414 7.34907L8.66942 6.68169L9.41414 7.34907ZM0.744718 -0.667379L0.0773398 -1.4121L-1.4121 -0.0773398L-0.744718 0.667379L0.744718 -0.667379ZM15.2553 -0.667379L8.66942 6.68169L10.1589 8.01645L16.7447 0.667379L15.2553 -0.667379ZM8.66942 6.68169C8.28908 7.1061 7.71092 7.1061 7.33058 6.68169L5.84114 8.01645C7.01636 9.32785 8.98364 9.32785 10.1589 8.01645L8.66942 6.68169ZM7.33058 6.68169L0.744718 -0.667379L-0.744718 0.667379L5.84114 8.01645L7.33058 6.68169Z" fill="#222222" mask="url(#path-1-inside-1_1_51)"/>
</svg>
