<svg width="16" height="8" viewBox="0 0 16 8" fill="none" xmlns="http://www.w3.org/2000/svg">
<mask id="path-1-inside-1_1_50" fill="white">
<path d="M16 8L9.41414 0.650933C8.63636 -0.216978 7.36364 -0.216978 6.58586 0.650933L0 8"/>
</mask>
<path d="M16.7447 7.33262L17.4121 8.07734L15.9227 9.4121L15.2553 8.66738L16.7447 7.33262ZM9.41414 0.650933L8.66942 1.31831L9.41414 0.650933ZM0.744718 8.66738L0.0773398 9.4121L-1.4121 8.07734L-0.744718 7.33262L0.744718 8.66738ZM15.2553 8.66738L8.66942 1.31831L10.1589 -0.0164461L16.7447 7.33262L15.2553 8.66738ZM8.66942 1.31831C8.28908 0.893896 7.71092 0.893896 7.33058 1.31831L5.84114 -0.0164461C7.01636 -1.32785 8.98364 -1.32785 10.1589 -0.0164461L8.66942 1.31831ZM7.33058 1.31831L0.744718 8.66738L-0.744718 7.33262L5.84114 -0.0164461L7.33058 1.31831Z" fill="#222222" mask="url(#path-1-inside-1_1_50)"/>
</svg>
