<svg width="20" height="20" viewBox="0 0 20 20" fill="none" xmlns="http://www.w3.org/2000/svg">
<path d="M1 12.6C1 12.0399 1 11.7599 1.10899 11.546C1.20487 11.3578 1.35785 11.2049 1.54601 11.109C1.75992 11 2.03995 11 2.6 11H3.4C3.96005 11 4.24008 11 4.45399 11.109C4.64215 11.2049 4.79513 11.3578 4.89101 11.546C5 11.7599 5 12.0399 5 12.6V17.4C5 17.9601 5 18.2401 4.89101 18.454C4.79513 18.6422 4.64215 18.7951 4.45399 18.891C4.24008 19 3.96005 19 3.4 19H2.6C2.03995 19 1.75992 19 1.54601 18.891C1.35785 18.7951 1.20487 18.6422 1.10899 18.454C1 18.2401 1 17.9601 1 17.4V12.6Z" stroke="#222222" stroke-linecap="round"/>
<path d="M8 2.6C8 2.03995 8 1.75992 8.10899 1.54601C8.20487 1.35785 8.35785 1.20487 8.54601 1.10899C8.75992 1 9.03995 1 9.6 1H10.4C10.9601 1 11.2401 1 11.454 1.10899C11.6422 1.20487 11.7951 1.35785 11.891 1.54601C12 1.75992 12 2.03995 12 2.6V17.4C12 17.9601 12 18.2401 11.891 18.454C11.7951 18.6422 11.6422 18.7951 11.454 18.891C11.2401 19 10.9601 19 10.4 19H9.6C9.03995 19 8.75992 19 8.54601 18.891C8.35785 18.7951 8.20487 18.6422 8.10899 18.454C8 18.2401 8 17.9601 8 17.4V2.6Z" stroke="#222222" stroke-linecap="round"/>
<path d="M15 8.6C15 8.03995 15 7.75992 15.109 7.54601C15.2049 7.35785 15.3578 7.20487 15.546 7.10899C15.7599 7 16.0399 7 16.6 7H17.4C17.9601 7 18.2401 7 18.454 7.10899C18.6422 7.20487 18.7951 7.35785 18.891 7.54601C19 7.75992 19 8.03995 19 8.6V17.4C19 17.9601 19 18.2401 18.891 18.454C18.7951 18.6422 18.6422 18.7951 18.454 18.891C18.2401 19 17.9601 19 17.4 19H16.6C16.0399 19 15.7599 19 15.546 18.891C15.3578 18.7951 15.2049 18.6422 15.109 18.454C15 18.2401 15 17.9601 15 17.4V8.6Z" stroke="#222222" stroke-linecap="round"/>
</svg>
