<svg width="18" height="20" viewBox="0 0 18 20" fill="none" xmlns="http://www.w3.org/2000/svg">
<path d="M15.763 11.7944L17.029 14.0222C16.8786 14.3163 16.7105 14.6051 16.5244 14.8873C16.3383 15.1695 16.1391 15.4378 15.9281 15.6919L13.4377 15.4142C12.7715 15.9608 12.0027 16.3869 11.1645 16.6592L10.0002 18.945C9.67188 18.9813 9.33822 19 9.00022 19C8.66221 19 8.32855 18.9813 8.00022 18.945L6.83293 16.6582C5.99428 16.3854 5.22514 15.9585 4.5589 15.4111L2.05407 15.6915C1.84303 15.4374 1.64381 15.1691 1.45774 14.8869C1.27168 14.6047 1.10356 14.3159 0.953125 14.0218L2.22637 11.7814C2.07803 11.2142 2.00021 10.6139 2.00021 10.0002C2.00021 9.37489 2.08219 8.76877 2.23599 8.19195L0.953505 5.936C1.10394 5.64191 1.27206 5.3531 1.45812 5.07091C1.64419 4.78873 1.84341 4.52043 2.05445 4.2663L4.60942 4.55327C5.26776 4.02075 6.01625 3.60683 6.84 3.33984M6.83614 3.33996L7.99997 1.05493C8.32831 1.01863 8.66196 1 8.99997 1C9.33798 1 9.67164 1.01863 9.99997 1.05493L11.1638 3.33996C11.9882 3.60716 12.7389 4.01764 13.3976 4.55077L15.9275 4.26661C16.1385 4.52074 16.3377 4.78904 16.5238 5.07123C16.7098 5.35341 16.878 5.64223 17.0284 5.93632L15.7592 8.16967M15.7594 8.17317C15.9164 8.7556 16.0002 9.3681 16.0002 10.0002C16.0002 10.6215 15.9193 11.2239 15.7673 11.7974M12.0002 10.0002C12.0002 11.657 10.6571 13.0002 9.0002 13.0002C7.34335 13.0002 6.0002 11.657 6.0002 10.0002C6.0002 8.3433 7.34335 7.00015 9.0002 7.00015C10.6571 7.00015 12.0002 8.3433 12.0002 10.0002Z" stroke="black" stroke-linecap="round" stroke-linejoin="round"/>
</svg>
