<svg width="20" height="20" viewBox="0 0 20 20" fill="none" xmlns="http://www.w3.org/2000/svg">
<path d="M5 11.8595H15M5 11.8595V9.41137C5 8.84008 5 8.55443 5.10899 8.33623C5.20487 8.14429 5.35785 7.98824 5.54601 7.89044C5.75992 7.77926 6.03995 7.77926 6.6 7.77926H13.4C13.9601 7.77926 14.2401 7.77926 14.454 7.89044C14.6422 7.98824 14.7951 8.14429 14.891 8.33623C15 8.55443 15 8.84008 15 9.41137V11.8595M5 11.8595V15.9398V19M15 11.8595V15.9398V19M16.3466 3.87578L12.1466 1.73364C11.3595 1.3322 10.966 1.13148 10.5532 1.05248C10.1876 0.982508 9.81241 0.982508 9.44681 1.05248C9.03401 1.13148 8.64047 1.3322 7.85338 1.73364L3.65337 3.87578C2.69019 4.36704 2.2086 4.61267 1.85675 4.97912C1.5456 5.30318 1.30896 5.69375 1.16396 6.12256C1 6.60746 1 7.1567 1 8.25519V17.3679C1 17.9392 1 18.2248 1.10899 18.443C1.20487 18.635 1.35785 18.791 1.54601 18.8888C1.75992 19 2.03995 19 2.6 19H17.4C17.9601 19 18.2401 19 18.454 18.8888C18.6422 18.791 18.7951 18.635 18.891 18.443C19 18.2248 19 17.9392 19 17.3679V8.25519C19 7.1567 19 6.60746 18.836 6.12256C18.691 5.69375 18.4544 5.30318 18.1433 4.97912C17.7914 4.61267 17.3098 4.36704 16.3466 3.87578Z" stroke="#222222" stroke-linecap="round" stroke-linejoin="round"/>
</svg>
