<svg width="300" height="74" viewBox="0 0 300 74" fill="none" xmlns="http://www.w3.org/2000/svg">
<path d="M121.611 42C111.342 41.8 102.08 40.6 93.02 37.6C92.416 37.4 92.0133 37.2 91.4093 37C90.8053 36.8 89.9999 36.6 90.4026 35.8C90.8053 35 91.4093 35.2 92.0133 35.6C96.0402 37 100.067 38 104.295 38.8C111.342 40 118.389 40.6 125.436 40.2C125.839 40.2 126.443 40.2 126.846 40.2C127.45 40.2 128.255 40 128.456 40.8C128.658 41.8 127.651 41.6 127.047 41.8C125.033 42 123.02 42 121.611 42Z" fill="#244198"/>
<path d="M91.8121 8.60001C90.4027 11.2 92.4161 11.6 93.6241 12.2C102.081 16.4 111.141 18.6 120.604 19.4C121.208 19.4 122.013 19.4 122.617 19.6C123.221 19.6 124.228 19.6 124.228 20.4C124.228 21.6 123.221 21.2 122.416 21.2C115.973 21 109.732 19.8 103.49 18C99.4631 16.8 95.4362 15.2 91.8121 13.2C89.5973 11.8 88.9933 9.20001 91.8121 8.60001Z" fill="#442C8D"/>
<path d="M79.5302 19.2C79.7316 21.4 81.141 22 82.349 22.8C87.1812 25.6 92.2148 27.6 97.4497 29.2C98.6577 29.6 100.067 29.6 101.275 29.4C102.282 29.2 102.886 29.8 103.289 30.6C103.691 31.4 103.289 31.8 102.685 32.4C102.081 33 101.074 33.2 100.268 32.8C96.443 30 91.6108 29.8 87.5839 27.6C85.1678 26.2 82.5504 25.2 80.1343 23.6C78.9262 22.6 78.1208 21.6 79.5302 19.2Z" fill="#2A3D96"/>
<path d="M116.577 62.4C110.738 62.8 105.101 62 99.463 60.8C98.8589 60.6 97.6509 60.8 97.6509 59.8C97.6509 58.8 98.8589 59 99.463 59.2C107.718 61.2 116.174 61.2 124.631 60.8C125.235 60.8 126.241 60.6 126.241 61.4C126.241 62.6 125.235 62.4 124.631 62.4C121.812 62.4 119.195 62.4 116.577 62.4Z" fill="#436FB6"/>
<path d="M73.8925 32.4C77.3153 37.8 82.5502 39.6 87.5837 41.8C90.4025 43 93.4227 43.8 96.4428 45C97.0468 45.2 97.6509 45.4 97.4495 46.2C97.2482 47 96.4428 46.8 96.0401 46.6C89.3958 44.6 82.7515 42.4 76.9126 38.4C75.1005 37 73.6911 35.4 73.8925 32.4Z" fill="#274DA0"/>
<path d="M79.5303 56.2C84.3625 59.6 89.7987 61.4 95.4363 63C96.6444 63.4 97.6511 63.2 98.8591 63C99.6645 62.8 100.269 63.2 100.671 64C101.074 64.6 100.873 65.4 100.269 65.8C99.6645 66.4 98.8591 66.8 98.2551 66.4C94.2283 63.8 89.1947 63.4 85.1679 61.2C82.9531 59.8 80.7383 58.4 79.5303 56.2Z" fill="#5186C6"/>
<path d="M116.174 14.2C115.772 16 114.564 16.6 113.557 16C109.128 13 103.49 12.8 99.0604 9.80001C98.4564 9.40001 97.651 9.20001 97.2483 8.60001C96.0403 7.60001 96.6443 7.00001 97.4497 6.60001C97.651 6.60001 97.8523 6.40001 98.0537 6.40001C99.6644 6.00001 97.651 7.00001 98.4564 7.60001C98.859 8.00001 99.4631 8.20001 100.067 8.40001C103.691 10.2 107.517 11.6 111.342 12.8C112.349 13.2 113.356 12.6 114.362 12.6C115.369 12.6 115.973 13.4 116.174 14.2Z" fill="#4E318F"/>
<path d="M73.8926 41.8C76.3087 45 79.7315 46.4 82.953 48C84.3624 48.6 85.7718 49.6 87.5839 49C88.3892 48.8 89.1946 49.4 89.5973 50.2C89.7986 50.8 89.5973 51.6 88.9932 52C88.1879 52.6 87.1812 52.6 86.5771 52C84.3624 49.6 81.1409 49.2 78.5234 47.4C76.1073 46.2 74.0939 44.6 73.8926 41.8Z" fill="#3B65B0"/>
<path d="M84.161 13.8C84.3623 15.2 84.9664 16 85.7717 16.4C89.1945 18 92.0133 20.6 96.0402 20.4C96.8456 20.4 97.4496 20.8 97.8523 21.6C98.0536 22.4 97.8523 23 97.0469 23.6C96.4429 24.2 95.4362 24.2 95.0335 23.8C92.2147 21 88.1878 20.4 85.1677 18.2C83.557 17 82.3489 16 84.161 13.8Z" fill="#3A4399"/>
<path d="M76.9128 26.6C79.5303 30 82.5504 32.2 86.9799 32.6C87.9867 32.6 88.5907 33.2 88.792 34.2C88.9934 35 88.5907 35.4 87.9867 35.8C87.1813 36.4 86.1746 36.6 85.5705 35.8C83.7585 33.4 80.7383 32.8 78.7249 31C77.3155 30 75.9061 28.8 76.9128 26.6Z" fill="#244198"/>
<path d="M89.5972 65.8C94.6307 68 99.8656 69.4 105.302 70.4C105.906 70.4 106.51 70.4 106.51 71.2C106.51 72 105.906 72.2 105.302 72C99.4629 71.2 94.0267 69.8 89.5972 65.8Z" fill="#509FD8"/>
<path d="M75.7046 48.6C79.1274 52.4 83.5569 54 87.9865 55.6C88.9932 56 89.9999 56.4 91.2079 56.8C91.6106 57 91.812 57.4 91.6106 57.8C91.4093 58 91.2079 58.2 91.0066 58.2C87.3824 59 76.7113 52.4 75.7046 48.6Z" fill="#3B65B0"/>
<path d="M104.497 55.8C100.671 55.4 96.8457 54.6 93.2215 53.6C92.6175 53.4 91.8121 53.4 92.0135 52.4C92.2148 51.4 93.0202 51.8 93.6242 52C97.4497 53 101.074 53.8 104.899 54.2C105.503 54.2 106.51 54.4 106.309 55.2C106.107 56.2 105.101 55.6 104.497 55.8Z" fill="#7F7F7F"/>
<path d="M124.027 25.8C125.839 25.8 123.624 25.8 125.235 25.8C126.443 25.8 126.443 26 126.242 26.8C126.242 27.4 125.638 27.4 125.235 27.4C122.215 27.4 118.993 27.2 115.973 27.2C115.369 27.2 114.765 27 114.765 26.4C114.765 25.4 115.571 25.6 116.376 25.6C117.987 25.8 123.624 26.2 126.242 26C128.859 26 124.027 25.8 124.027 25.8Z" fill="#312184"/>
<path d="M104.899 46.8C107.718 47 110.335 47.4 112.953 47.6C113.557 47.6 114.765 47.6 114.564 48.6C114.564 49.6 113.557 49.2 112.953 49.2C110.134 49 107.315 48.6 104.497 48.2C103.893 48.2 103.087 48 103.087 47C103.49 46.2 104.295 46.6 104.899 46.8Z" fill="#234A9E"/>
<path d="M108.523 26.2C106.51 25.8 103.691 25.2 101.074 24.4C100.47 24.2 99.8657 24 100.067 23.4C100.268 22.4 101.074 22.6 101.678 22.8C104.295 23.4 106.913 24 109.732 24.6C110.336 24.8 111.141 24.8 110.94 25.8C110.537 26.6 109.933 26.2 108.523 26.2Z" fill="#3A4399"/>
<path d="M127.047 17.2C125.034 17 122.819 16.8 120.805 16.4C120.201 16.4 119.396 16.2 119.396 15.4C119.597 14.4 120.403 14.8 121.007 14.8C123.624 15 126.04 15.2 128.658 15.4C129.262 15.4 130.067 15.4 130.067 16.4C130.067 17.4 129.262 17.2 128.658 17.2C128.054 17.2 127.651 17.2 127.047 17.2Z" fill="#3E2082"/>
<path d="M112.55 9.4C110.134 8.8 107.919 8.2 105.705 7C105.101 6.6 104.698 6.2 104.899 5.4C105.101 4.8 105.302 4.6 105.906 4.4C108.725 3.8 105.906 4.4 107.114 5.4C108.725 7 111.141 7 113.154 7.8C113.557 8 114.362 8 113.96 9C113.758 9.8 113.154 9.6 112.55 9.4Z" fill="#481F81"/>
<path d="M115.772 54.8C116.98 54.8 117.987 54.8 119.195 54.8C119.597 54.8 120.201 55 120.201 55.6C120.201 56.2 119.799 56.4 119.396 56.4C116.98 56.6 114.564 56.6 112.148 56.4C111.544 56.4 111.342 56 111.342 55.4C111.342 54.8 111.946 54.6 112.349 54.6C113.356 54.6 114.564 54.6 115.772 54.8Z" fill="#8C8C8C"/>
<path d="M110.336 67.4C108.725 67.2 106.913 67 105.302 66.8C104.698 66.8 104.094 66.6 104.094 66C104.094 65 104.899 65.2 105.503 65.2C107.517 65.4 109.53 65.6 111.342 65.8C111.946 65.8 112.953 65.8 112.953 66.6C112.953 67.6 111.946 67.4 111.141 67.4C110.94 67.4 110.537 67.4 110.336 67.4Z" fill="#5186C6"/>
<path d="M108.121 31.6C109.732 31.8 111.544 32 113.356 32.4C113.96 32.4 114.564 32.6 114.362 33.4C114.362 34.2 113.557 34.2 112.953 34C111.141 33.8 109.329 33.6 107.718 33.2C107.114 33 105.302 33 105.503 31.8C105.906 31 107.517 31.6 108.121 31.6Z" fill="#2C4098"/>
<path d="M86.7784 36.8C88.1128 36.8 89.1945 35.7255 89.1945 34.4C89.1945 33.0745 88.1128 32 86.7784 32C85.444 32 84.3623 33.0745 84.3623 34.4C84.3623 35.7255 85.444 36.8 86.7784 36.8Z" fill="#244198"/>
<path d="M60.2014 23.6H71.6779C80.9397 23.6 87.3826 27.2 87.3826 38C87.3826 48.6 80.9397 53.4 71.6779 53.4H69.4632V70H60.2014V23.6ZM71.0739 46.2C76.1075 46.2 78.3222 43.4 78.3222 38.2C78.3222 32.8 76.1075 31 71.0739 31H69.4632V46.2H71.0739Z" fill="#182A5B"/>
<path d="M140.94 70L134.698 52.6H132.282V70H122.819V23.6H135.101C143.154 23.6 149.597 27 149.597 37.6C149.597 44.2 146.98 48.4 143.154 50.6L150.805 70H140.94ZM132.081 45.2H134.094C137.92 45.2 140.336 42.6 140.336 37.6C140.336 32.6 137.92 31 134.094 31H132.081V45.2Z" fill="#182A5B"/>
<path d="M159.463 31.4H149.597V23.6H178.59V31.4H168.926V70H159.463V31.4Z" fill="#182A5B"/>
<path d="M192.483 58.2H183.624L181.812 70H172.953L181.812 23.6H194.698L203.356 70H194.295L192.483 58.2ZM191.275 50.8L190.47 45.8C189.664 41 188.859 35.6 188.054 30.6H187.852C187.248 35.6 186.443 41 185.436 45.8L184.631 50.8H191.275Z" fill="#182A5B"/>
<path d="M205.369 23.6H214.832V62.2H229.329V70H205.369V23.6Z" fill="#182A5B"/>
<path d="M234.564 70.2C233.96 70 233.356 69.4 232.953 69C232.55 68.4 232.349 67.8 232.349 67H234.966C234.966 67.2 235.168 67.6 235.168 67.8C235.369 68 235.369 68.2 235.57 68.2C235.772 68.4 235.973 68.4 236.174 68.4C236.577 68.4 236.98 68.2 237.382 68C237.584 67.8 237.785 67.4 237.785 66.8V66.4C237.785 65.8 237.584 65.4 237.382 65.2C237.181 65 236.778 64.8 236.376 64.8H235.57V62.4H236.778C237.181 62.4 237.382 62.2 237.584 62C237.785 61.8 237.785 61.4 237.785 61V60.8C237.785 60.4 237.785 60 237.584 59.8C237.382 59.6 237.181 59.4 236.778 59.4C236.577 59.4 236.376 59.4 236.174 59.6C235.973 59.8 235.772 59.8 235.772 60.2C235.57 60.4 235.57 60.6 235.57 61H232.953C232.953 60.2 233.154 59.4 233.557 58.8C233.96 58.2 234.362 57.8 234.966 57.4C235.57 57 236.174 57 236.98 57C238.188 57 238.993 57.4 239.799 58C240.604 58.6 240.805 59.4 240.805 60.6V61C240.805 61.6 240.604 62.2 240.403 62.6C240 63 239.597 63.4 238.993 63.6C239.597 63.8 240.201 64 240.403 64.6C240.805 65.2 241.007 65.8 241.007 66.6V67C241.007 67.8 240.805 68.4 240.604 69C240.201 69.6 239.799 70 239.195 70.2C238.59 70.4 237.986 70.6 236.98 70.6C235.973 70.6 235.168 70.6 234.564 70.2Z" fill="#442C8D"/>
<path d="M243.02 69.6C242.416 69 242.013 68 242.013 66.8V60.8C242.013 59.6 242.416 58.6 243.02 58C243.624 57.4 244.631 57 246.04 57C247.45 57 248.255 57.4 249.06 58C249.664 58.6 250.067 59.6 250.067 60.8V66.8C250.067 68 249.664 69 249.06 69.6C248.456 70.2 247.45 70.6 246.04 70.6C244.631 70.6 243.624 70.4 243.02 69.6ZM247.047 67.8C247.248 67.4 247.45 67 247.45 66.4V61.6C247.45 61 247.248 60.4 247.047 60.2C246.846 59.8 246.443 59.6 245.839 59.6C245.235 59.6 245.034 59.8 244.631 60.2C244.43 60.6 244.228 61 244.228 61.6V66.4C244.228 67 244.43 67.6 244.631 67.8C244.832 68 245.235 68.4 245.839 68.4C246.443 68.2 246.846 68 247.047 67.8Z" fill="#244198"/>
<path d="M255.906 70.6H253.288V60.2L251.678 60.8V58L253.691 57.2H255.906V70.6Z" fill="#436FB6"/>
<path d="M60.2014 27.4V41.8L69.4632 49.2V36.4" fill="#182A5B"/>
<path d="M123.02 52.8V62.4L132.08 60.6V50.6L123.02 52.2V52.8Z" fill="#182A5B"/>
<path d="M83.9598 17C83.9598 17 83.1544 16.6 82.9531 15C82.7517 13.4 83.9598 13 83.9598 13L84.1611 14L83.9598 17Z" fill="#3A4399"/>
<path d="M91.812 8.6C91.812 8.6 87.5839 10.6 81.3422 17C81.3422 17 78.1208 16.4 72.6845 16.2C63.6241 16 56.1745 18.6 55.3691 24.2C55.1677 25.6 55.9731 28.8 58.1879 31.2C71.8792 46.4 120 74 234.161 29.2L232.349 23.8L251.074 25.2L237.785 39.2L235.973 33.6C235.973 33.6 115.168 85.6 55.5704 41C52.5503 38.6 49.7315 35.8 47.9194 32.4C44.0939 26 42.2818 15.4 60.8053 8.99999C60.8053 8.99999 72.2818 5.4 91.812 8.6Z" fill="#9088B8"/>
<path d="M60.2014 31.8V46.2L69.4632 53.6V38.2" fill="#182A5B"/>
<path d="M122.819 53.4V63L132.081 61.2V51L122.819 52.8V53.4Z" fill="#182A5B"/>
<path d="M177.383 46.6L175.973 54.4L184.832 52.2L186.242 42L177.383 46.6Z" fill="#182A5B"/>
<path d="M159.463 50L168.725 49.2V60.2L159.463 60.6V50Z" fill="#182A5B"/>
<path d="M114.161 16.8C115.495 16.8 116.577 15.7255 116.577 14.4C116.577 13.0745 115.495 12 114.161 12C112.827 12 111.745 13.0745 111.745 14.4C111.745 15.7255 112.827 16.8 114.161 16.8Z" fill="#4E318F"/>
<path d="M96.0401 24.6C97.3745 24.6 98.4562 23.5255 98.4562 22.2C98.4562 20.8745 97.3745 19.8 96.0401 19.8C94.7058 19.8 93.624 20.8745 93.624 22.2C93.624 23.5255 94.7058 24.6 96.0401 24.6Z" fill="#3A4399"/>
<path d="M99.0604 67.2C100.395 67.2 101.477 66.1255 101.477 64.8C101.477 63.4745 100.395 62.4 99.0604 62.4C97.726 62.4 96.6443 63.4745 96.6443 64.8C96.6443 66.1255 97.726 67.2 99.0604 67.2Z" fill="#5186C6"/>
<path d="M101.074 33.6C102.408 33.6 103.49 32.5255 103.49 31.2C103.49 29.8745 102.408 28.8 101.074 28.8C99.7394 28.8 98.6577 29.8745 98.6577 31.2C98.6577 32.5255 99.7394 33.6 101.074 33.6Z" fill="#2A3D96"/>
</svg>
