<svg width="113" height="37" viewBox="0 0 113 37" fill="none" xmlns="http://www.w3.org/2000/svg">
<path d="M40.8591 20.7027C35.3826 20.5946 30.443 19.946 25.6108 18.3243C25.2886 18.2162 25.0739 18.1081 24.7517 18C24.4296 17.8919 24 17.7838 24.2148 17.3514C24.4296 16.9189 24.7517 17.027 25.0738 17.2433C27.2215 18 29.3692 18.5406 31.6242 18.973C35.3826 19.6216 39.141 19.946 42.8994 19.7298C43.1141 19.7298 43.4363 19.7298 43.651 19.7298C43.9732 19.7298 44.4027 19.6216 44.5101 20.0541C44.6175 20.5946 44.0806 20.4865 43.7584 20.5946C42.6846 20.7027 41.6108 20.7027 40.8591 20.7027Z" fill="#244198"/>
<path d="M24.9665 2.64868C24.2148 4.05409 25.2886 4.2703 25.9329 4.59463C30.443 6.8649 35.2752 8.05409 40.3222 8.48652C40.6443 8.48652 41.0739 8.48652 41.396 8.59463C41.7182 8.59463 42.2551 8.59463 42.2551 9.02706C42.2551 9.67571 41.7182 9.45949 41.2886 9.45949C37.8524 9.35138 34.5235 8.70274 31.1947 7.72976C29.047 7.08111 26.8994 6.21625 24.9665 5.13517C23.7853 4.37841 23.4631 2.97301 24.9665 2.64868Z" fill="#442C8D"/>
<path d="M18.4161 8.37842C18.5235 9.56761 19.2752 9.89193 19.9195 10.3244C22.4966 11.8379 25.1812 12.919 27.9732 13.7838C28.6174 14 29.3691 14 30.0134 13.8919C30.5503 13.7838 30.8725 14.1081 31.0872 14.5406C31.302 14.973 31.0872 15.1892 30.7651 15.5136C30.443 15.8379 29.906 15.946 29.4765 15.7298C27.4362 14.2163 24.8591 14.1081 22.7114 12.919C21.4228 12.1622 20.0268 11.6217 18.7383 10.7568C18.094 10.2163 17.6644 9.67572 18.4161 8.37842Z" fill="#2A3D96"/>
<path d="M38.1745 31.7297C35.0604 31.946 32.0537 31.5135 29.047 30.8649C28.7249 30.7568 28.0806 30.8649 28.0806 30.3243C28.0806 29.7838 28.7249 29.8919 29.047 30C33.4497 31.0811 37.9598 31.0811 42.4698 30.8649C42.792 30.8649 43.3289 30.7568 43.3289 31.1892C43.3289 31.8379 42.792 31.7297 42.4698 31.7297C40.9665 31.7297 39.5705 31.7297 38.1745 31.7297Z" fill="#436FB6"/>
<path d="M15.4094 15.5135C17.2349 18.4325 20.0268 19.4054 22.7114 20.5946C24.2148 21.2433 25.8255 21.6757 27.4362 22.3244C27.7584 22.4325 28.0805 22.5406 27.9732 22.973C27.8658 23.4054 27.4362 23.2973 27.2215 23.1892C23.6779 22.1081 20.1342 20.919 17.0201 18.7568C16.0537 18 15.302 17.1352 15.4094 15.5135Z" fill="#274DA0"/>
<path d="M18.4161 28.3784C20.9933 30.2163 23.8926 31.1892 26.8994 32.0541C27.5437 32.2703 28.0806 32.1622 28.7249 32.0541C29.1544 31.946 29.4765 32.1622 29.6913 32.5946C29.9061 32.919 29.7987 33.3514 29.4765 33.5676C29.1544 33.8919 28.7249 34.1081 28.4027 33.8919C26.2551 32.4865 23.5705 32.2703 21.4228 31.0811C20.2416 30.3244 19.0604 29.5676 18.4161 28.3784Z" fill="#5186C6"/>
<path d="M37.9598 5.67578C37.745 6.64875 37.1007 6.97308 36.5638 6.64875C34.2014 5.02713 31.1947 4.91902 28.8322 3.2974C28.5101 3.08119 28.0806 2.97308 27.8658 2.64875C27.2215 2.10821 27.5436 1.78389 27.9732 1.56767C28.0806 1.56767 28.1879 1.45956 28.2953 1.45956C29.1544 1.24335 28.0806 1.78389 28.5101 2.10821C28.7249 2.32443 29.047 2.43254 29.3692 2.54064C31.302 3.51362 33.3423 4.27037 35.3826 4.91902C35.9195 5.13524 36.4564 4.81092 36.9933 4.81092C37.5302 4.81092 37.8524 5.24335 37.9598 5.67578Z" fill="#4E318F"/>
<path d="M15.4094 20.5946C16.698 22.3243 18.5235 23.0811 20.2416 23.946C20.9933 24.2703 21.745 24.8108 22.7114 24.4865C23.141 24.3784 23.5705 24.7027 23.7853 25.1351C23.8926 25.4595 23.7853 25.8919 23.4631 26.1081C23.0336 26.4324 22.4967 26.4324 22.1745 26.1081C20.9933 24.8108 19.2752 24.5946 17.8792 23.6216C16.5906 22.973 15.5168 22.1081 15.4094 20.5946Z" fill="#3B65B0"/>
<path d="M20.8859 5.45947C20.9933 6.21623 21.3155 6.64866 21.745 6.86488C23.5705 7.72974 25.0739 9.13515 27.2215 9.02704C27.651 9.02704 27.9732 9.24326 28.1879 9.67569C28.2953 10.1081 28.188 10.4324 27.7584 10.7568C27.4363 11.0811 26.8994 11.0811 26.6846 10.8649C25.1812 9.35136 23.0336 9.02704 21.4228 7.83785C20.5638 7.1892 19.9195 6.64866 20.8859 5.45947Z" fill="#3A4399"/>
<path d="M17.0201 12.3784C18.4161 14.2163 20.0269 15.4054 22.3893 15.6217C22.9262 15.6217 23.2483 15.946 23.3557 16.4865C23.4631 16.919 23.2483 17.1352 22.9262 17.3514C22.4967 17.6757 21.9597 17.7838 21.6376 17.3514C20.6711 16.0541 19.0604 15.7298 17.9866 14.7568C17.2349 14.2163 16.4832 13.5676 17.0201 12.3784Z" fill="#244198"/>
<path d="M23.7853 33.5676C26.4698 34.7568 29.2618 35.5136 32.1611 36.0541C32.4833 36.0541 32.8054 36.0541 32.8054 36.4865C32.8054 36.919 32.4833 37.0271 32.1611 36.919C29.047 36.4865 26.1477 35.7298 23.7853 33.5676Z" fill="#509FD8"/>
<path d="M16.3759 24.2703C18.2014 26.3243 20.5638 27.1892 22.9262 28.054C23.4631 28.2703 24 28.4865 24.6443 28.7027C24.8591 28.8108 24.9665 29.027 24.8591 29.2432C24.7517 29.3513 24.6443 29.4595 24.5369 29.4595C22.604 29.8919 16.9128 26.3243 16.3759 24.2703Z" fill="#3B65B0"/>
<path d="M31.7315 28.1622C29.6913 27.946 27.651 27.5136 25.7181 26.973C25.396 26.8649 24.9664 26.8649 25.0738 26.3244C25.1812 25.7838 25.6107 26 25.9329 26.1082C27.9732 26.6487 29.906 27.0811 31.9463 27.2973C32.2685 27.2973 32.8054 27.4055 32.698 27.8379C32.5906 28.3784 32.0537 28.0541 31.7315 28.1622Z" fill="#7F7F7F"/>
<path d="M42.1477 11.946C43.1141 11.946 41.9329 11.946 42.792 11.946C43.4363 11.946 43.4363 12.0541 43.3289 12.4866C43.3289 12.8109 43.0067 12.8109 42.792 12.8109C41.1812 12.8109 39.4631 12.7028 37.8524 12.7028C37.5302 12.7028 37.2081 12.5947 37.2081 12.2704C37.2081 11.7298 37.6376 11.8379 38.0671 11.8379C38.9262 11.946 41.9329 12.1623 43.3289 12.0541C44.7248 12.0541 42.1477 11.946 42.1477 11.946Z" fill="#312184"/>
<path d="M31.9463 23.2973C33.4497 23.4054 34.8456 23.6216 36.2416 23.7297C36.5637 23.7297 37.208 23.7297 37.1007 24.2703C37.1007 24.8108 36.5637 24.5946 36.2416 24.5946C34.7382 24.4865 33.2349 24.2703 31.7315 24.0541C31.4094 24.0541 30.9799 23.946 30.9799 23.4054C31.1946 22.973 31.6242 23.1892 31.9463 23.2973Z" fill="#234A9E"/>
<path d="M33.8792 12.1622C32.8054 11.946 31.302 11.6217 29.9061 11.1892C29.5839 11.0811 29.2618 10.973 29.3691 10.6487C29.4765 10.1081 29.9061 10.2162 30.2282 10.3244C31.6242 10.6487 33.0202 10.973 34.5235 11.2973C34.8457 11.4054 35.2752 11.4054 35.1678 11.946C34.953 12.3784 34.6309 12.1622 33.8792 12.1622Z" fill="#3A4399"/>
<path d="M43.7584 7.29728C42.6846 7.18917 41.5034 7.08107 40.4295 6.86485C40.1074 6.86485 39.6779 6.75674 39.6779 6.32431C39.7852 5.78377 40.2148 5.99998 40.5369 5.99998C41.9329 6.10809 43.2215 6.2162 44.6175 6.32431C44.9396 6.32431 45.3691 6.32431 45.3691 6.86485C45.3691 7.40539 44.9396 7.29728 44.6175 7.29728C44.2953 7.29728 44.0805 7.29728 43.7584 7.29728Z" fill="#3E2082"/>
<path d="M36.0269 3.08112C34.7383 2.7568 33.5571 2.43248 32.3759 1.78383C32.0537 1.56761 31.8389 1.3514 31.9463 0.918963C32.0537 0.594638 32.1611 0.48653 32.4832 0.378422C33.9866 0.0540978 32.4832 0.378422 33.1275 0.918963C33.9866 1.78383 35.2752 1.78383 36.349 2.21626C36.5638 2.32437 36.9933 2.32437 36.7785 2.86491C36.6712 3.29734 36.349 3.18923 36.0269 3.08112Z" fill="#481F81"/>
<path d="M37.745 27.6217C38.3893 27.6217 38.9262 27.6217 39.5705 27.6217C39.7853 27.6217 40.1074 27.7298 40.1074 28.0541C40.1074 28.3784 39.8926 28.4865 39.6779 28.4865C38.3893 28.5946 37.1007 28.5946 35.8121 28.4865C35.49 28.4865 35.3826 28.2703 35.3826 27.946C35.3826 27.6217 35.7047 27.5135 35.9195 27.5135C36.4564 27.5135 37.1007 27.5136 37.745 27.6217Z" fill="#8C8C8C"/>
<path d="M34.8456 34.4325C33.9866 34.3244 33.0201 34.2163 32.1611 34.1082C31.8389 34.1082 31.5168 34.0001 31.5168 33.6758C31.5168 33.1352 31.9463 33.2433 32.2685 33.2433C33.3423 33.3514 34.4161 33.4595 35.3826 33.5676C35.7047 33.5676 36.2416 33.5676 36.2416 34.0001C36.2416 34.5406 35.7047 34.4325 35.2752 34.4325C35.1678 34.4325 34.953 34.4325 34.8456 34.4325Z" fill="#5186C6"/>
<path d="M33.6644 15.0811C34.5235 15.1892 35.4899 15.2973 36.4564 15.5135C36.7785 15.5135 37.1007 15.6217 36.9933 16.0541C36.9933 16.4865 36.5638 16.4865 36.2416 16.3784C35.2752 16.2703 34.3087 16.1622 33.4497 15.946C33.1275 15.8379 32.1611 15.8379 32.2685 15.1892C32.4832 14.7568 33.3423 15.0811 33.6644 15.0811Z" fill="#2C4098"/>
<path d="M22.2819 17.892C22.9935 17.892 23.5705 17.3111 23.5705 16.5947C23.5705 15.8782 22.9935 15.2974 22.2819 15.2974C21.5702 15.2974 20.9933 15.8782 20.9933 16.5947C20.9933 17.3111 21.5702 17.892 22.2819 17.892Z" fill="#244198"/>
<path d="M8.10742 10.7568H14.2282C19.1678 10.7568 22.6041 12.7028 22.6041 18.5406C22.6041 24.2703 19.1678 26.8649 14.2282 26.8649H13.047V35.8379H8.10742V10.7568ZM13.9061 22.9731C16.5906 22.9731 17.7719 21.4595 17.7719 18.6487C17.7719 15.7298 16.5906 14.7568 13.9061 14.7568H13.047V22.9731H13.9061Z" fill="#182A5B"/>
<path d="M51.1678 35.8379L47.8389 26.4325H46.5503V35.8379H41.5034V10.7568H48.0537C52.349 10.7568 55.7852 12.5947 55.7852 18.3244C55.7852 21.892 54.3893 24.1622 52.349 25.3514L56.4295 35.8379H51.1678ZM46.443 22.4325H47.5168C49.557 22.4325 50.8456 21.0271 50.8456 18.3244C50.8456 15.6217 49.557 14.7568 47.5168 14.7568H46.443V22.4325Z" fill="#182A5B"/>
<path d="M61.047 14.9731H55.7853V10.7568H71.2484V14.9731H66.094V35.8379H61.047V14.9731Z" fill="#182A5B"/>
<path d="M78.6577 29.4595H73.9329L72.9665 35.8379H68.2416L72.9665 10.7568H79.8389L84.4564 35.8379H79.6242L78.6577 29.4595ZM78.0134 25.4595L77.5839 22.7568C77.1544 20.1622 76.7249 17.2433 76.2953 14.5406H76.1879C75.8658 17.2433 75.4363 20.1622 74.8994 22.7568L74.4698 25.4595H78.0134Z" fill="#182A5B"/>
<path d="M85.5302 10.7568H90.5772V31.6217H98.3087V35.8379H85.5302V10.7568Z" fill="#182A5B"/>
<path d="M101.101 35.946C100.779 35.8379 100.456 35.5136 100.242 35.2974C100.027 34.9731 99.9195 34.6488 99.9195 34.2163H101.315C101.315 34.3244 101.423 34.5406 101.423 34.6488C101.53 34.7569 101.53 34.865 101.638 34.865C101.745 34.9731 101.852 34.9731 101.96 34.9731C102.175 34.9731 102.389 34.865 102.604 34.7569C102.711 34.6488 102.819 34.4325 102.819 34.1082V33.892C102.819 33.5677 102.711 33.3515 102.604 33.2433C102.497 33.1352 102.282 33.0271 102.067 33.0271H101.638V31.7298H102.282C102.497 31.7298 102.604 31.6217 102.711 31.5136C102.819 31.4055 102.819 31.1893 102.819 30.9731V30.865C102.819 30.6488 102.819 30.4325 102.711 30.3244C102.604 30.2163 102.497 30.1082 102.282 30.1082C102.175 30.1082 102.067 30.1082 101.96 30.2163C101.852 30.3244 101.745 30.3244 101.745 30.5406C101.638 30.6488 101.638 30.7569 101.638 30.9731H100.242C100.242 30.5406 100.349 30.1082 100.564 29.7839C100.779 29.4596 100.993 29.2433 101.315 29.0271C101.638 28.8109 101.96 28.8109 102.389 28.8109C103.034 28.8109 103.463 29.0271 103.893 29.3515C104.322 29.6758 104.43 30.1082 104.43 30.7569V30.9731C104.43 31.2974 104.322 31.6217 104.215 31.8379C104 32.0542 103.785 32.2704 103.463 32.3785C103.785 32.4866 104.107 32.5947 104.215 32.919C104.43 33.2433 104.537 33.5677 104.537 34.0001V34.2163C104.537 34.6488 104.43 34.9731 104.322 35.2974C104.107 35.6217 103.893 35.8379 103.571 35.946C103.248 36.0542 102.926 36.1623 102.389 36.1623C101.852 36.1623 101.423 36.1623 101.101 35.946Z" fill="#442C8D"/>
<path d="M105.611 35.6217C105.289 35.2974 105.074 34.7569 105.074 34.1082V30.865C105.074 30.2163 105.289 29.6758 105.611 29.3515C105.933 29.0271 106.47 28.8109 107.222 28.8109C107.973 28.8109 108.403 29.0271 108.832 29.3515C109.154 29.6758 109.369 30.2163 109.369 30.865V34.1082C109.369 34.7569 109.154 35.2974 108.832 35.6217C108.51 35.946 107.973 36.1623 107.222 36.1623C106.47 36.1623 105.933 36.0542 105.611 35.6217ZM107.758 34.6488C107.866 34.4325 107.973 34.2163 107.973 33.892V31.2974C107.973 30.9731 107.866 30.6488 107.758 30.5406C107.651 30.3244 107.436 30.2163 107.114 30.2163C106.792 30.2163 106.685 30.3244 106.47 30.5406C106.362 30.7569 106.255 30.9731 106.255 31.2974V33.892C106.255 34.2163 106.362 34.5406 106.47 34.6488C106.577 34.7569 106.792 34.9731 107.114 34.9731C107.436 34.865 107.651 34.7569 107.758 34.6488Z" fill="#244198"/>
<path d="M112.483 36.1622H111.087V30.5406L110.228 30.8649V29.3514L111.302 28.9189H112.483V36.1622Z" fill="#436FB6"/>
<path d="M8.10742 12.8109V20.5947L13.047 24.5947V17.6758" fill="#182A5B"/>
<path d="M41.6108 26.5406V31.7298L46.443 30.7568V25.3514L41.6108 26.2163V26.5406Z" fill="#182A5B"/>
<path d="M20.7785 7.18926C20.7785 7.18926 20.349 6.97305 20.2416 6.10818C20.1342 5.24332 20.7785 5.0271 20.7785 5.0271L20.8859 5.56764L20.7785 7.18926Z" fill="#3A4399"/>
<path d="M24.9665 2.64871C24.9665 2.64871 22.7114 3.72979 19.3826 7.18925C19.3826 7.18925 17.6644 6.86492 14.7651 6.75682C9.9329 6.64871 5.95975 8.05411 5.53022 11.0811C5.42283 11.8379 5.85236 13.5676 7.03357 14.8649C14.3356 23.0811 40 38.0001 100.886 13.7838L99.9195 10.8649L109.906 11.6217L102.819 19.1892L101.852 16.1622C101.852 16.1622 37.4228 44.2703 5.6376 20.1622C4.02686 18.8649 2.5235 17.3514 1.55706 15.5136C-0.483206 12.0541 -1.44965 6.32438 8.42955 2.86492C8.42955 2.86492 14.5504 0.918977 24.9665 2.64871Z" fill="#9088B8"/>
<path d="M8.10742 15.1892V22.973L13.047 26.973V18.6487" fill="#182A5B"/>
<path d="M41.5034 26.8649V32.0541L46.443 31.0811V25.5676L41.5034 26.5406V26.8649Z" fill="#182A5B"/>
<path d="M70.604 23.1892L69.8524 27.4055L74.5772 26.2163L75.3289 20.7028L70.604 23.1892Z" fill="#182A5B"/>
<path d="M61.047 25.027L65.9866 24.5946V30.5406L61.047 30.7568V25.027Z" fill="#182A5B"/>
<path d="M36.8859 7.08117C37.5976 7.08117 38.1745 6.50035 38.1745 5.78387C38.1745 5.06739 37.5976 4.48657 36.8859 4.48657C36.1743 4.48657 35.5974 5.06739 35.5974 5.78387C35.5974 6.50035 36.1743 7.08117 36.8859 7.08117Z" fill="#4E318F"/>
<path d="M27.2215 11.2974C27.9332 11.2974 28.5101 10.7165 28.5101 10.0001C28.5101 9.28358 27.9332 8.70276 27.2215 8.70276C26.5098 8.70276 25.9329 9.28358 25.9329 10.0001C25.9329 10.7165 26.5098 11.2974 27.2215 11.2974Z" fill="#3A4399"/>
<path d="M28.8322 34.3243C29.5439 34.3243 30.1208 33.7435 30.1208 33.027C30.1208 32.3106 29.5439 31.7297 28.8322 31.7297C28.1206 31.7297 27.5436 32.3106 27.5436 33.027C27.5436 33.7435 28.1206 34.3243 28.8322 34.3243Z" fill="#5186C6"/>
<path d="M29.9061 16.1622C30.6178 16.1622 31.1947 15.5814 31.1947 14.8649C31.1947 14.1484 30.6178 13.5676 29.9061 13.5676C29.1944 13.5676 28.6175 14.1484 28.6175 14.8649C28.6175 15.5814 29.1944 16.1622 29.9061 16.1622Z" fill="#2A3D96"/>
</svg>
