<svg width="20" height="20" viewBox="0 0 20 20" fill="none" xmlns="http://www.w3.org/2000/svg">
<path d="M7 11C7 13.2091 8.79086 15 11 15C12.1046 15 13.1046 14.5523 13.8284 13.8284M7 11H3M7 11C7 9.44801 7.88388 8.10247 9.17571 7.43928M3 11C3 11.5523 2.55228 12 2 12C1.44772 12 1 11.5523 1 11C1 10.4477 1.44772 10 2 10C2.55228 10 3 10.4477 3 11ZM17.2929 4.70711C17.1119 4.52614 17 4.27614 17 4C17 3.44772 17.4477 3 18 3C18.5523 3 19 3.44772 19 4C19 4.55228 18.5523 5 18 5C17.7239 5 17.4739 4.88807 17.2929 4.70711ZM17.2929 4.70711L13.8284 8.17157M7.37149 2.92872C7.73983 2.78126 8 2.42101 8 2C8 1.44772 7.55228 1 7 1C6.44772 1 6 1.44772 6 2C6 2.55228 6.44772 3 7 3C7.13127 3 7.25664 2.97471 7.37149 2.92872ZM7.37149 2.92872L9.17571 7.43928M13.8284 13.8284C14.5523 13.1046 15 12.1046 15 11C15 9.89543 14.5523 8.89543 13.8284 8.17157M13.8284 13.8284L17.2929 17.2929M17.2929 17.2929C17.1119 17.4739 17 17.7239 17 18C17 18.5523 17.4477 19 18 19C18.5523 19 19 18.5523 19 18C19 17.4477 18.5523 17 18 17C17.7239 17 17.4739 17.1119 17.2929 17.2929ZM13.8284 8.17157C13.1046 7.44772 12.1046 7 11 7C10.3428 7 9.72271 7.15847 9.17571 7.43928" stroke="#222222" stroke-linecap="round" stroke-linejoin="round"/>
</svg>
