<svg width="20" height="16" viewBox="0 0 20 16" fill="none" xmlns="http://www.w3.org/2000/svg">
<path d="M16 8H13M19 4H1M16 12H13M11 15C10.6218 13.2883 8.97467 12 7 12C5.03262 12 3.39034 13.2788 3.00424 14.9811M7 8H7.01M3.00424 14.9811C3.31776 15 3.70396 15 4.2 15H15.8C16.9201 15 17.4802 15 17.908 14.782C18.2843 14.5903 18.5903 14.2843 18.782 13.908C19 13.4802 19 12.9201 19 11.8V4.2C19 3.0799 19 2.51984 18.782 2.09202C18.5903 1.71569 18.2843 1.40973 17.908 1.21799C17.4802 1 16.9201 1 15.8 1H4.2C3.0799 1 2.51984 1 2.09202 1.21799C1.71569 1.40973 1.40973 1.71569 1.21799 2.09202C1 2.51984 1 3.07989 1 4.2V11.8C1 12.9201 1 13.4802 1.21799 13.908C1.40973 14.2843 1.71569 14.5903 2.09202 14.782C2.33038 14.9035 2.60979 14.9572 3.00424 14.9811ZM8 8C8 8.55228 7.55228 9 7 9C6.44772 9 6 8.55228 6 8C6 7.44772 6.44772 7 7 7C7.55228 7 8 7.44772 8 8Z" stroke="#222222" stroke-linecap="round" stroke-linejoin="round"/>
</svg>
