<svg width="20" height="20" viewBox="0 0 20 20" fill="none" xmlns="http://www.w3.org/2000/svg">
<path d="M1 19H0.5C0.5 19.2761 0.723858 19.5 1 19.5V19ZM19 19V19.5C19.2761 19.5 19.5 19.2761 19.5 19H19ZM4 4.5C3.72386 4.5 3.5 4.72386 3.5 5C3.5 5.27614 3.72386 5.5 4 5.5V4.5ZM5 5.5C5.27614 5.5 5.5 5.27614 5.5 5C5.5 4.72386 5.27614 4.5 5 4.5V5.5ZM9 4.5C8.72386 4.5 8.5 4.72386 8.5 5C8.5 5.27614 8.72386 5.5 9 5.5V4.5ZM10 5.5C10.2761 5.5 10.5 5.27614 10.5 5C10.5 4.72386 10.2761 4.5 10 4.5V5.5ZM4 7.5C3.72386 7.5 3.5 7.72386 3.5 8C3.5 8.27614 3.72386 8.5 4 8.5V7.5ZM5 8.5C5.27614 8.5 5.5 8.27614 5.5 8C5.5 7.72386 5.27614 7.5 5 7.5V8.5ZM9 7.5C8.72386 7.5 8.5 7.72386 8.5 8C8.5 8.27614 8.72386 8.5 9 8.5V7.5ZM10 8.5C10.2761 8.5 10.5 8.27614 10.5 8C10.5 7.72386 10.2761 7.5 10 7.5V8.5ZM4 10.5C3.72386 10.5 3.5 10.7239 3.5 11C3.5 11.2761 3.72386 11.5 4 11.5V10.5ZM5 11.5C5.27614 11.5 5.5 11.2761 5.5 11C5.5 10.7239 5.27614 10.5 5 10.5V11.5ZM9 10.5C8.72386 10.5 8.5 10.7239 8.5 11C8.5 11.2761 8.72386 11.5 9 11.5V10.5ZM10 11.5C10.2761 11.5 10.5 11.2761 10.5 11C10.5 10.7239 10.2761 10.5 10 10.5V11.5ZM9 19V19.5H9.5V19H9ZM5 19H4.5V19.5H5V19ZM16 8.5C15.7239 8.5 15.5 8.72386 15.5 9C15.5 9.27614 15.7239 9.5 16 9.5V8.5ZM16.01 9.5C16.2861 9.5 16.51 9.27614 16.51 9C16.51 8.72386 16.2861 8.5 16.01 8.5V9.5ZM16 11.5C15.7239 11.5 15.5 11.7239 15.5 12C15.5 12.2761 15.7239 12.5 16 12.5V11.5ZM16.01 12.5C16.2861 12.5 16.51 12.2761 16.51 12C16.51 11.7239 16.2861 11.5 16.01 11.5V12.5ZM16 14.5C15.7239 14.5 15.5 14.7239 15.5 15C15.5 15.2761 15.7239 15.5 16 15.5V14.5ZM16.01 15.5C16.2861 15.5 16.51 15.2761 16.51 15C16.51 14.7239 16.2861 14.5 16.01 14.5V15.5ZM18.891 5.54601L18.4455 5.77301L18.891 5.54601ZM18.454 5.10899L18.227 5.5545L18.454 5.10899ZM12.454 1.10899L12.227 1.5545L12.454 1.10899ZM12.891 1.54601L12.4455 1.773L12.891 1.54601ZM1.10899 1.54601L1.5545 1.773L1.10899 1.54601ZM1.54601 1.10899L1.773 1.5545L1.54601 1.10899ZM0.5 2.6V19H1.5V2.6H0.5ZM2.6 1.5H11.4V0.5H2.6V1.5ZM12.5 2.6V5H13.5V2.6H12.5ZM12.5 5V19H13.5V5H12.5ZM1 19.5H13V18.5H1V19.5ZM13 19.5H19V18.5H13V19.5ZM18.5 6.6V19H19.5V6.6H18.5ZM13 5.5H17.4V4.5H13V5.5ZM4 5.5H5V4.5H4V5.5ZM9 5.5H10V4.5H9V5.5ZM4 8.5H5V7.5H4V8.5ZM9 8.5H10V7.5H9V8.5ZM4 11.5H5V10.5H4V11.5ZM9 11.5H10V10.5H9V11.5ZM8.5 16V19H9.5V16H8.5ZM9 18.5H5V19.5H9V18.5ZM5.5 19V16H4.5V19H5.5ZM7 14.5C7.82843 14.5 8.5 15.1716 8.5 16H9.5C9.5 14.6193 8.38071 13.5 7 13.5V14.5ZM7 13.5C5.61929 13.5 4.5 14.6193 4.5 16H5.5C5.5 15.1716 6.17157 14.5 7 14.5V13.5ZM16 9.5H16.01V8.5H16V9.5ZM16 12.5H16.01V11.5H16V12.5ZM16 15.5H16.01V14.5H16V15.5ZM19.5 6.6C19.5 6.32822 19.5004 6.09432 19.4847 5.90249C19.4686 5.70481 19.4329 5.5082 19.3365 5.31901L18.4455 5.77301C18.4581 5.79773 18.4769 5.84809 18.488 5.98392C18.4996 6.12559 18.5 6.31172 18.5 6.6H19.5ZM17.4 5.5C17.6883 5.5 17.8744 5.50039 18.0161 5.51196C18.1519 5.52306 18.2023 5.5419 18.227 5.5545L18.681 4.66349C18.4918 4.56709 18.2952 4.53144 18.0975 4.51528C17.9057 4.49961 17.6718 4.5 17.4 4.5V5.5ZM19.3365 5.31901C19.1927 5.03677 18.9632 4.8073 18.681 4.66349L18.227 5.5545C18.3211 5.60243 18.3976 5.67892 18.4455 5.77301L19.3365 5.31901ZM11.4 1.5C11.6883 1.5 11.8744 1.50039 12.0161 1.51196C12.1519 1.52306 12.2023 1.5419 12.227 1.5545L12.681 0.66349C12.4918 0.567093 12.2952 0.531435 12.0975 0.515285C11.9057 0.499611 11.6718 0.5 11.4 0.5V1.5ZM13.5 2.6C13.5 2.32822 13.5004 2.09432 13.4847 1.90249C13.4686 1.70481 13.4329 1.5082 13.3365 1.31901L12.4455 1.773C12.4581 1.79773 12.4769 1.84809 12.488 1.98392C12.4996 2.12559 12.5 2.31172 12.5 2.6H13.5ZM12.227 1.5545C12.3211 1.60243 12.3976 1.67892 12.4455 1.773L13.3365 1.31901C13.1927 1.03677 12.9632 0.807301 12.681 0.66349L12.227 1.5545ZM1.5 2.6C1.5 2.31172 1.50039 2.12559 1.51196 1.98392C1.52306 1.84809 1.5419 1.79773 1.5545 1.773L0.66349 1.31901C0.567093 1.5082 0.531435 1.70481 0.515285 1.90249C0.499611 2.09432 0.5 2.32822 0.5 2.6H1.5ZM2.6 0.5C2.32822 0.5 2.09432 0.499611 1.90249 0.515285C1.70481 0.531435 1.5082 0.567093 1.31901 0.66349L1.773 1.5545C1.79773 1.5419 1.84809 1.52306 1.98392 1.51196C2.12559 1.50039 2.31172 1.5 2.6 1.5V0.5ZM1.5545 1.773C1.60243 1.67892 1.67892 1.60243 1.773 1.5545L1.31901 0.66349C1.03677 0.8073 0.8073 1.03677 0.66349 1.31901L1.5545 1.773Z" fill="#222222"/>
</svg>
