<svg width="16" height="16" viewBox="0 0 16 16" fill="none" xmlns="http://www.w3.org/2000/svg">
<path d="M10.722 2.94231L12.9219 5.14262M8.77778 14.9997H15M1 15L1.03691 14.7416C1.1675 13.8272 1.2328 13.3701 1.38133 12.9432C1.51314 12.5645 1.69319 12.2043 1.91705 11.8716C2.16932 11.4967 2.49581 11.1701 3.1488 10.517L12.2083 1.4557C12.8158 0.848101 13.8008 0.848099 14.4082 1.4557C15.0157 2.0633 15.0157 3.04841 14.4082 3.65601L5.18245 12.8836C4.59006 13.4761 4.29387 13.7723 3.95649 14.0079C3.65703 14.2171 3.33405 14.3903 2.9942 14.5241C2.61133 14.6748 2.2007 14.7577 1.3795 14.9234L1 15Z" stroke="white" stroke-linecap="round" stroke-linejoin="round"/>
</svg>
