<svg width="20" height="16" viewBox="0 0 20 16" fill="none" xmlns="http://www.w3.org/2000/svg">
<path d="M14 15C13.6218 13.2883 11.9747 12 10 12C8.02533 12 6.37818 13.2883 6 15M10 8H10.01M10.0627 2.06274L9.93726 1.93726C9.59136 1.59135 9.4184 1.4184 9.21657 1.29472C9.03763 1.18506 8.84254 1.10425 8.63846 1.05526C8.40829 1 8.1637 1 7.67452 1H4.2C3.0799 1 2.51984 1 2.09202 1.21799C1.71569 1.40973 1.40973 1.71569 1.21799 2.09202C1 2.51984 1 3.07989 1 4.2V11.8C1 12.9201 1 13.4802 1.21799 13.908C1.40973 14.2843 1.71569 14.5903 2.09202 14.782C2.51984 15 3.07989 15 4.2 15H15.8C16.9201 15 17.4802 15 17.908 14.782C18.2843 14.5903 18.5903 14.2843 18.782 13.908C19 13.4802 19 12.9201 19 11.8V6.2C19 5.0799 19 4.51984 18.782 4.09202C18.5903 3.71569 18.2843 3.40973 17.908 3.21799C17.4802 3 16.9201 3 15.8 3H12.3255C11.8363 3 11.5917 3 11.3615 2.94474C11.1575 2.89575 10.9624 2.81494 10.7834 2.70528C10.5816 2.5816 10.4086 2.40865 10.0627 2.06274ZM11 8C11 8.55228 10.5523 9 10 9C9.44772 9 9 8.55228 9 8C9 7.44772 9.44772 7 10 7C10.5523 7 11 7.44772 11 8Z" stroke="#222222" stroke-linecap="round" stroke-linejoin="round"/>
</svg>
