<svg width="24" height="24" viewBox="0 0 24 24" fill="none" xmlns="http://www.w3.org/2000/svg">
<path d="M11 18V21C11 21.5 10.6 22 10 22C9.4 22 9 21.5 9 21V18H11Z" stroke="#17191C" stroke-miterlimit="10" stroke-linecap="round" stroke-linejoin="round"/>
<path d="M15 18V21C15 21.5 14.6 22 14 22C13.4 22 13 21.5 13 21V18H15Z" stroke="#17191C" stroke-miterlimit="10" stroke-linecap="round" stroke-linejoin="round"/>
<path d="M16 11.7778V16.2222C16 17.2 15.28 18 14.4 18H9.6C8.72 18 8 17.2 8 16.2222V11.7778C8 10.8 8.72 10 9.6 10H14.4C15.28 10 16 10.8 16 11.7778Z" stroke="#17191C" stroke-miterlimit="10" stroke-linecap="round" stroke-linejoin="round"/>
<path d="M6 12V16C6 16.6 5.6 17 5 17C4.4 17 4 16.6 4 16V12C4 11.4 4.4 11 5 11C5.6 11 6 11.4 6 12Z" stroke="#17191C" stroke-miterlimit="10" stroke-linecap="round" stroke-linejoin="round"/>
<path d="M20 12V16C20 16.6 19.6 17 19 17C18.4 17 18 16.6 18 16V12C18 11.4 18.4 11 19 11C19.6 11 20 11.4 20 12Z" stroke="#17191C" stroke-miterlimit="10" stroke-linecap="round" stroke-linejoin="round"/>
<path d="M13 18H11" stroke="#17191C" stroke-miterlimit="10" stroke-linecap="round" stroke-linejoin="round"/>
<path d="M9.6 8H14.4C15.3 8 16 7.25 16 6.28571C16 3.92857 14.2 2 12 2C9.8 2 8 3.92857 8 6.28571C8 7.25 8.7 8 9.6 8Z" stroke="#17191C" stroke-miterlimit="10" stroke-linecap="round" stroke-linejoin="round"/>
</svg>
