<svg width="60" height="60" viewBox="0 0 60 60" fill="none" xmlns="http://www.w3.org/2000/svg">
<path d="M45.66 29.7092L45.8349 30.4908H46.6359H46.9231C48.0633 30.4908 49 31.4276 49 32.5672V35.6436C49 36.7831 48.0633 37.7199 46.9231 37.7199H46.359H45.6295L45.4067 38.4146C44.2993 41.8677 41.5006 44.5624 37.9909 45.5288L36.8342 45.8473L37.3559 46.9277C37.5848 47.4019 37.718 47.9206 37.718 48.4618C37.718 48.7605 37.4787 49 37.1795 49H22.8205C22.5213 49 22.2821 48.7605 22.2821 48.4618C22.2821 47.9238 22.4137 47.4133 22.647 46.9217L23.1567 45.8479L22.0115 45.5295C18.4982 44.5527 15.7002 41.866 14.5933 38.4146L14.3705 37.7199H13.641H13.0769C11.9367 37.7199 11 36.7831 11 35.6436V32.5672C11 31.4276 11.9367 30.4908 13.0769 30.4908H13.3641H14.1651L14.34 29.7092C15.42 24.8827 19.7321 21.2617 24.8718 21.2617H28.4615H29.4615V20.2617V18.9491V18.2438L28.7971 18.0071C27.3898 17.5057 26.3846 16.1764 26.3846 14.6216C26.3846 12.6309 28.0085 11.0071 30 11.0071C31.9915 11.0071 33.6154 12.6309 33.6154 14.6216C33.6154 16.1764 32.6102 17.5057 31.2029 18.0071L30.5385 18.2438V18.9491V20.2617V21.2617H31.5385H35.1282C40.2679 21.2617 44.58 24.8827 45.66 29.7092ZM19.5777 12.0527L19.5056 12.0287C19.2568 11.9146 19.1351 11.6342 19.2232 11.3765C19.3238 11.0821 19.6346 10.9359 19.9095 11.0275L22.9864 12.053L22.9864 12.053L22.99 12.0542C23.2658 12.1449 23.4235 12.444 23.3277 12.7382C23.2499 12.9688 23.042 13.1089 22.8205 13.1089C22.7953 13.1089 22.737 13.103 22.6444 13.0747L19.5777 12.0527ZM19.9095 18.2055L19.8816 18.2147L19.8544 18.2256C19.8544 18.2256 19.8259 18.2362 19.7436 18.2362H19.7333C19.5118 18.2362 19.3039 18.0961 19.2262 17.8655C19.1304 17.5713 19.2881 17.2722 19.5639 17.1815L19.5639 17.1815L19.5675 17.1803L22.6408 16.156C22.6412 16.1559 22.6417 16.1557 22.6421 16.1556C22.9369 16.0593 23.2363 16.2174 23.3271 16.493C23.4241 16.7878 23.2663 17.0879 22.99 17.1788L22.99 17.1788L22.9864 17.18L19.9095 18.2055ZM37.3454 13.0782L37.3175 13.0874L37.2903 13.0983C37.2903 13.0983 37.2618 13.1089 37.1795 13.1089H37.1692C36.9477 13.1089 36.7398 12.9689 36.6621 12.7382C36.5663 12.444 36.724 12.1449 36.9998 12.0542L37.0034 12.053L40.0767 11.0287C40.0771 11.0286 40.0776 11.0284 40.078 11.0283C40.3728 10.9321 40.6722 11.0901 40.763 11.3657C40.86 11.6605 40.7022 11.9606 40.4259 12.0515L40.4223 12.0527L37.3454 13.0782ZM37.0136 17.18L36.9429 17.1564C36.7024 17.0454 36.5725 16.7669 36.6627 16.493C36.7533 16.2176 37.0619 16.0604 37.3454 16.1548L40.4223 17.1803L40.4259 17.1815C40.7017 17.2722 40.8594 17.5713 40.7635 17.8655C40.6858 18.0962 40.4779 18.2362 40.2564 18.2362C40.2312 18.2362 40.1729 18.2303 40.0803 18.202L37.0136 17.18ZM32.5385 14.6216C32.5385 13.218 31.4034 12.0834 30 12.0834C28.5966 12.0834 27.4615 13.218 27.4615 14.6216C27.4615 16.0252 28.5966 17.1598 30 17.1598C31.4034 17.1598 32.5385 16.0252 32.5385 14.6216ZM24.8718 44.8472H35.1282C40.4906 44.8472 44.8462 40.4927 44.8462 35.1308V32.0544C44.8462 26.6926 40.4906 22.338 35.1282 22.338H24.8718C19.5094 22.338 15.1538 26.6926 15.1538 32.0544V35.1308C15.1538 40.4927 19.5094 44.8472 24.8718 44.8472ZM22.2821 30.5163C22.2821 29.3767 23.2188 28.4399 24.359 28.4399C25.4992 28.4399 26.4359 29.3767 26.4359 30.5163V33.5926C26.4359 34.7322 25.4992 35.669 24.359 35.669C23.2188 35.669 22.2821 34.7322 22.2821 33.5926V30.5163ZM33.5641 30.5163C33.5641 29.3767 34.5008 28.4399 35.641 28.4399C36.7812 28.4399 37.718 29.3767 37.718 30.5163V33.5926C37.718 34.7322 36.7812 35.669 35.641 35.669C34.5008 35.669 33.5641 34.7322 33.5641 33.5926V30.5163Z" stroke="#182A5B" stroke-width="2"/>
</svg>
