<svg width="60" height="60" viewBox="0 0 60 60" fill="none" xmlns="http://www.w3.org/2000/svg">
<path d="M17.5 40H20M28.75 40H31.25M40 40H42.5M46 50H14C12.5999 50 11.8998 50 11.365 49.7275C10.8946 49.4878 10.5122 49.1054 10.2725 48.635C10 48.1002 10 47.4001 10 46V12C10 11.2999 10 10.9499 10.1362 10.6825C10.2561 10.4473 10.4473 10.2561 10.6825 10.1362C10.9499 10 11.2999 10 12 10H18C18.7001 10 19.0501 10 19.3175 10.1362C19.5527 10.2561 19.7439 10.4473 19.8638 10.6825C20 10.9499 20 11.2999 20 12V22.6716C20 24.1861 20 24.9434 20.2995 25.294C20.5594 25.5983 20.9492 25.7598 21.3481 25.7284C21.8078 25.6922 22.3433 25.1567 23.4142 24.0858L31.5858 15.9142C32.6567 14.8433 33.1922 14.3078 33.6519 14.2716C34.0508 14.2402 34.4406 14.4017 34.7005 14.706C35 15.0566 35 15.8139 35 17.3284V22.6716C35 24.1861 35 24.9434 35.2995 25.294C35.5594 25.5983 35.9492 25.7598 36.3481 25.7284C36.8078 25.6922 37.3433 25.1567 38.4142 24.0858L46.5858 15.9142C47.6567 14.8433 48.1922 14.3078 48.6519 14.2716C49.0508 14.2402 49.4406 14.4017 49.7005 14.706C50 15.0566 50 15.8139 50 17.3284V46C50 47.4001 50 48.1002 49.7275 48.635C49.4878 49.1054 49.1054 49.4878 48.635 49.7275C48.1002 50 47.4001 50 46 50Z" stroke="#182A5B" stroke-width="2" stroke-linecap="round"/>
</svg>
