<svg width="40" height="40" viewBox="0 0 40 40" fill="none" xmlns="http://www.w3.org/2000/svg">
<circle cx="20" cy="20" r="19" stroke="#182A5B" stroke-width="2"/>
<path d="M14.7024 26.1591C13.8842 26.1591 13.157 26.0189 12.5206 25.7386C11.888 25.4583 11.388 25.0682 11.0206 24.5682C10.6532 24.0682 10.4581 23.4905 10.4354 22.8352H12.5717C12.5907 23.1496 12.6948 23.4242 12.8842 23.6591C13.0736 23.8902 13.3255 24.0701 13.6399 24.1989C13.9543 24.3277 14.3066 24.392 14.6967 24.392C15.1134 24.392 15.4827 24.3201 15.8047 24.1761C16.1267 24.0284 16.3786 23.8239 16.5604 23.5625C16.7422 23.3011 16.8312 23 16.8274 22.6591C16.8312 22.3068 16.7403 21.9962 16.5547 21.7273C16.3691 21.4583 16.1001 21.2481 15.7479 21.0966C15.3994 20.9451 14.9789 20.8693 14.4865 20.8693H13.4581V19.2443H14.4865C14.8918 19.2443 15.246 19.1742 15.549 19.0341C15.8558 18.8939 16.0964 18.697 16.2706 18.4432C16.4448 18.1856 16.5301 17.8883 16.5263 17.5511C16.5301 17.2216 16.4562 16.9356 16.3047 16.6932C16.157 16.447 15.9467 16.2557 15.674 16.1193C15.4051 15.983 15.0888 15.9148 14.7251 15.9148C14.3691 15.9148 14.0395 15.9792 13.7365 16.108C13.4335 16.2367 13.1892 16.4205 13.0036 16.6591C12.8179 16.8939 12.7195 17.1742 12.7081 17.5H10.6797C10.6948 16.8485 10.8823 16.2765 11.2422 15.7841C11.6058 15.2879 12.0907 14.9015 12.6967 14.625C13.3028 14.3447 13.9827 14.2045 14.7365 14.2045C15.513 14.2045 16.1873 14.3504 16.7592 14.642C17.335 14.9299 17.7801 15.3182 18.0945 15.8068C18.4089 16.2955 18.5661 16.8352 18.5661 17.4261C18.5698 18.0814 18.3767 18.6307 17.9865 19.0739C17.6001 19.517 17.0926 19.8068 16.4638 19.9432V20.0341C17.282 20.1477 17.9089 20.4508 18.3445 20.9432C18.7839 21.4318 19.0017 22.0398 18.9979 22.767C18.9979 23.4186 18.8123 24.0019 18.4411 24.517C18.0736 25.0284 17.5661 25.4299 16.9183 25.7216C16.2744 26.0133 15.5357 26.1591 14.7024 26.1591ZM25.005 26H21.0618V14.3636H25.0845C26.2398 14.3636 27.2322 14.5966 28.0618 15.0625C28.8951 15.5246 29.5353 16.1894 29.9822 17.0568C30.4292 17.9242 30.6527 18.9621 30.6527 20.1705C30.6527 21.3826 30.4273 22.4242 29.9766 23.2955C29.5296 24.1667 28.8838 24.8352 28.0391 25.3011C27.1982 25.767 26.1868 26 25.005 26ZM23.1697 24.1761H24.9027C25.7133 24.1761 26.3894 24.0284 26.9311 23.733C27.4728 23.4337 27.88 22.9886 28.1527 22.3977C28.4254 21.803 28.5618 21.0606 28.5618 20.1705C28.5618 19.2803 28.4254 18.5417 28.1527 17.9545C27.88 17.3636 27.4766 16.9223 26.9425 16.6307C26.4122 16.3352 25.7531 16.1875 24.9652 16.1875H23.1697V24.1761Z" fill="#182A5B"/>
</svg>
