<svg width="60" height="60" viewBox="0 0 60 60" fill="none" xmlns="http://www.w3.org/2000/svg">
<path d="M18.8889 41.1111H18.9111M25.5556 41.1111H25.5778M32.2222 41.1111H32.2444M41.1111 27.7778V32.2222M32.2222 14.4444C33.8889 12.2222 38.0429 10 41.1111 10C44.1794 10 47.7778 11.4815 50 14.4444M36.6667 21.1111C37.5 20 39.577 18.8889 41.1111 18.8889C42.6452 18.8889 44.4444 19.6296 45.5556 21.1111M17.1111 32.2222H42.8889C45.378 32.2222 46.6226 32.2222 47.5733 32.7066C48.4096 33.1327 49.0895 33.8127 49.5156 34.6489C50 35.5997 50 36.8442 50 39.3333V42.8889C50 45.378 50 46.6226 49.5156 47.5733C49.0895 48.4096 48.4096 49.0895 47.5733 49.5156C46.6226 50 45.378 50 42.8889 50H17.1111C14.622 50 13.3774 50 12.4267 49.5156C11.5904 49.0895 10.9105 48.4096 10.4844 47.5733C10 46.6226 10 45.378 10 42.8889V39.3333C10 36.8442 10 35.5997 10.4844 34.6489C10.9105 33.8127 11.5904 33.1327 12.4267 32.7066C13.3774 32.2222 14.622 32.2222 17.1111 32.2222Z" stroke="#182A5B" stroke-width="2" stroke-linecap="round" stroke-linejoin="round"/>
</svg>
